<svg viewBox="0 0 24 30" fill="none" xmlns="http://www.w3.org/2000/svg">
<g clip-path="url(#clip0_111_152)">
<path d="M4.34247 14.91C2.85058 15.8208 1.84421 16.9296 1.54619 18.4463C1.29347 19.7383 1.60054 20.9807 2.07247 22.1988C2.89949 24.3339 4.19029 26.2601 5.64504 28.1108C5.87421 28.4023 6.12331 28.6813 6.3543 28.9713C6.6034 29.2856 6.54724 29.6518 6.22839 29.8624C6.15307 29.9155 6.06576 29.9543 5.9721 29.9764C5.87843 29.9984 5.78048 30.0032 5.68456 29.9904C5.58863 29.9776 5.49687 29.9475 5.41518 29.902C5.33348 29.8566 5.26367 29.7968 5.21024 29.7265C2.98192 27.0868 1.04346 24.3143 0.228219 21.0679C-0.35332 18.7567 0.132203 16.6538 2.09512 14.9288C2.67485 14.4196 3.38682 14.018 4.06619 13.6C4.27 13.4742 4.34609 13.3689 4.34518 13.1607C4.33854 9.66152 4.33854 6.16211 4.34518 2.66243C4.34518 1.48365 5.04629 0.557128 6.21299 0.170488C8.15145 -0.473913 10.1307 0.756736 10.1388 2.62314C10.1488 4.87776 10.1388 7.13237 10.1388 9.38699V9.75241C11.0682 9.18267 12.0202 9.031 13.0311 9.39171C14.042 9.75241 14.571 10.4369 14.7685 11.3446C16.7613 10.6829 18.967 11.9308 18.8519 13.9379C19.2242 13.8593 19.5992 13.7265 19.9842 13.7021C21.7053 13.5819 23.1156 14.62 23.1392 16.1257C23.2089 20.7418 21.9843 25.0389 18.8211 28.8298C18.5444 29.1522 18.2471 29.461 17.9307 29.7548C17.6164 30.055 17.1934 30.0691 16.8809 29.8231C16.5838 29.5874 16.5647 29.2188 16.8537 28.9281C19.169 26.598 20.4888 23.8616 21.2098 20.8833C21.5791 19.327 21.7417 17.7392 21.6944 16.1508C21.6836 15.8559 21.5525 15.5739 21.3244 15.355C21.0964 15.1361 20.7861 14.9946 20.449 14.9556C20.1119 14.9167 19.7697 14.9828 19.4836 15.1423C19.1974 15.3017 18.9858 15.5441 18.8864 15.8263C18.8553 15.9402 18.8383 16.0566 18.8356 16.1736C18.8003 16.5666 18.505 16.8204 18.0775 16.8149C17.6499 16.8094 17.3573 16.543 17.3528 16.1453C17.3483 15.3029 17.3691 14.4597 17.3528 13.6172C17.3428 13.1088 17.0321 12.7418 16.5049 12.5383C15.9778 12.3347 15.4886 12.4 15.0339 12.6954C14.9083 12.7702 14.8051 12.8701 14.7331 12.9866C14.6611 13.103 14.6223 13.2328 14.6199 13.365C14.5982 13.8742 14.5366 14.3811 14.4841 14.8888C14.4397 15.3241 14.1036 15.6007 13.6824 15.5607C13.2612 15.5206 12.9994 15.207 13.042 14.7693C13.1392 13.7739 13.2334 12.7785 13.3246 11.7831C13.36 11.4771 13.2597 11.171 13.0441 10.9269C12.8286 10.6828 12.5139 10.5191 12.1642 10.4691C11.9878 10.4434 11.8071 10.4486 11.633 10.4844C11.4589 10.5202 11.2947 10.5858 11.1503 10.6774C11.0058 10.769 10.8839 10.8847 10.7917 11.0178C10.6995 11.1508 10.6389 11.2985 10.6135 11.4522C10.4531 12.4015 10.3517 13.3579 10.224 14.3112C10.1896 14.5642 10.1687 14.8196 10.1107 15.0679C10.0356 15.3925 9.76744 15.574 9.42232 15.5685C9.24484 15.5697 9.07302 15.5144 8.93945 15.413C8.80588 15.3116 8.71984 15.1712 8.69766 15.0184C8.68149 14.9016 8.67574 14.7839 8.68045 14.6664C8.68045 10.6962 8.68045 6.72609 8.68045 2.75595C8.68954 2.57012 8.67435 2.384 8.63516 2.20114C8.46577 1.5921 7.81358 1.2141 7.08077 1.27854C6.7401 1.30864 6.42344 1.4445 6.18908 1.6611C5.95472 1.8777 5.81846 2.16047 5.80537 2.45733C5.79812 2.58463 5.79993 2.71194 5.79993 2.84004C5.79993 8.28077 5.79993 13.721 5.79993 19.1607C5.80521 19.3074 5.79215 19.4541 5.76098 19.5984C5.7228 19.7314 5.63457 19.8496 5.51027 19.9342C5.38596 20.0188 5.23268 20.0651 5.07467 20.0656C4.91667 20.0661 4.76297 20.0209 4.6379 19.9372C4.51283 19.8534 4.42353 19.7359 4.38413 19.6031C4.35437 19.4786 4.3413 19.3515 4.34518 19.2243C4.34518 17.9208 4.34518 16.6171 4.34518 15.3131L4.34247 14.91Z" fill="#133F66"/>
</g>
<defs>
<clipPath id="clip0_111_152">
<rect width="23.1429" height="30" fill="white"/>
</clipPath>
</defs>
</svg>
