<svg viewBox="0 0 16 16" fill="none" xmlns="http://www.w3.org/2000/svg">
<path fill-rule="evenodd" clip-rule="evenodd" d="M8 0C12.4151 0 16 3.58008 16 8C16 12.4151 12.4199 16 8 16C3.58488 16 0 12.4199 0 8C0 3.58488 3.58008 0 8 0ZM6.96821 6.41152H8.60948V7.25135H8.63347C8.86383 6.83863 9.42052 6.41152 10.2555 6.41152C11.988 6.41152 12.3095 7.4913 12.3095 8.89262V11.7528H10.5963V9.21896C10.5963 8.61428 10.5819 7.83683 9.70366 7.83683C8.81104 7.83683 8.67667 8.4943 8.67667 9.17577V11.7528H6.96341V6.41152H6.96821ZM5.78284 4.92861C5.78284 5.41812 5.38452 5.82124 4.89022 5.82124C4.40072 5.82124 3.9976 5.42292 3.9976 4.92861C3.9976 4.43911 4.39592 4.03599 4.89022 4.03599C5.37972 4.03599 5.78284 4.43431 5.78284 4.92861ZM4.0024 6.41152H5.78284V11.7528H4.0024V6.41152Z" fill="black"/>
</svg>
