<svg viewBox="0 0 262 171" fill="none" xmlns="http://www.w3.org/2000/svg">
<path d="M21.367 68.179L32.7818 21.9036H42.6004V89.4577H33.1951V51.5461L24.801 89.4577H18.1429L9.50704 51.5461V89.4577H0V21.9036H9.81864L21.367 68.179Z" fill="#133F66"/>
<path d="M79.1278 76.3408C79.1278 85.7966 74.422 90.5371 65.0103 90.5624C55.5987 90.5876 50.9035 85.8471 50.9246 76.3408V21.9036H60.7433V76.3408C60.7433 79.396 62.1656 80.9214 65.0103 80.9172C67.855 80.913 69.288 79.3875 69.3092 76.3408V21.9036H79.1278V76.3408Z" fill="#133F66"/>
<path d="M86.7589 35.0016C86.7589 25.5458 91.4541 20.8158 100.845 20.8116H100.984V30.4189H100.806C97.9871 30.4189 96.5775 31.9465 96.5775 35.0016V89.4388H86.7589V35.0016Z" fill="#133F66"/>
<path d="M149.779 0H139.96V89.4577H149.779V0Z" fill="#133F66"/>
<path d="M185.607 76.3408C185.607 85.7966 180.901 90.5372 171.489 90.5624C162.077 90.5876 157.382 85.8471 157.403 76.3408V35.0016C157.403 25.5458 162.099 20.8158 171.489 20.8116C180.88 20.8074 185.585 25.5374 185.607 35.0016V76.3408ZM175.794 35.0016C175.794 31.9717 174.372 30.4442 171.527 30.4189H171.457C168.634 30.4189 167.222 31.9465 167.222 35.0016V76.3219C167.222 79.377 168.644 80.9025 171.489 80.8983C174.334 80.8941 175.769 79.3686 175.794 76.3219V35.0016Z" fill="#186C5F"/>
<path d="M73.0484 102.341H87.3376C96.0582 102.341 100.418 107.082 100.418 116.563V126.719C100.418 133.692 97.2834 138.191 91.0132 140.215C88.8753 140.774 86.6663 141.019 84.4568 140.941H82.8607V169.895H73.0484V102.341ZM82.8607 111.948V131.296H85.1182C86.0635 131.344 87.0108 131.253 87.929 131.024C89.7095 130.313 90.5998 128.878 90.5998 126.719V116.563C90.5998 113.482 89.1775 111.944 86.3328 111.948H82.8607Z" fill="#133F66"/>
<path d="M116.825 140.941V156.778C116.825 159.833 118.248 161.359 121.092 161.355C123.937 161.351 125.37 159.825 125.391 156.778V147.689H135.21V156.778C135.21 166.234 130.504 170.975 121.092 171C111.681 171.025 106.985 166.285 107.007 156.778V115.458C107.007 106.002 111.702 101.272 121.092 101.268C130.483 101.264 135.189 105.994 135.21 115.458V140.941H116.825ZM116.825 131.296H125.391V115.458C125.391 112.428 123.969 110.901 121.124 110.875H121.054C118.235 110.875 116.825 112.403 116.825 115.458V131.296Z" fill="#133F66"/>
<path d="M142.841 115.458C142.841 106.002 147.536 101.272 156.926 101.268H157.073V110.875H156.895C154.075 110.875 152.666 112.403 152.666 115.458V169.895H142.841V115.458Z" fill="#133F66"/>
<path d="M170.561 140.941V156.778C170.561 159.833 171.983 161.359 174.828 161.355C177.672 161.351 179.105 159.825 179.127 156.778V147.689H188.945V156.778C188.945 166.234 184.239 170.975 174.828 171C165.416 171.025 160.721 166.285 160.742 156.778V115.458C160.742 106.002 165.437 101.272 174.828 101.268C184.218 101.264 188.924 105.994 188.945 115.458V140.941H170.561ZM170.561 131.296H179.127V115.458C179.127 112.428 177.704 110.901 174.86 110.875H174.79C171.975 110.875 170.565 112.403 170.561 115.458V131.296Z" fill="#133F66"/>
<path d="M206.808 79.9514H196.195V90.4866H206.808V79.9514Z" fill="#186C5F"/>
<path d="M206.395 102.341H196.576V169.902H206.395V102.341Z" fill="#186C5F"/>
<path d="M214.026 115.458C214.026 106.002 218.721 101.272 228.112 101.268H228.245V110.875H228.073C225.25 110.875 223.84 112.403 223.845 115.458V169.895H214.026V115.458Z" fill="#133F66"/>
<path d="M252.181 115.458C252.181 112.403 250.772 110.875 247.952 110.875H247.882C245.034 110.901 243.611 112.428 243.615 115.458V124.548H233.797V115.458C233.797 106.002 238.503 101.272 247.914 101.268C257.326 101.264 262.021 105.994 262 115.458V156.778C262 166.259 257.305 171 247.914 171C238.524 171 233.818 166.259 233.797 156.778V145.467C233.797 136.011 237.4 131.27 244.607 131.245C247.728 131.245 250.259 131.969 252.2 133.417L252.181 115.458ZM243.615 156.778C243.615 159.833 245.048 161.359 247.914 161.355C250.78 161.351 252.202 159.825 252.181 156.778V145.416C252.181 142.386 250.759 140.871 247.914 140.871C245.07 140.871 243.637 142.403 243.615 145.467V156.778Z" fill="#133F66"/>
<path d="M124.882 28.5757V79.8189H134.141V89.4893H105.741V79.8189H114.994V33.7392C114.994 33.3062 114.908 32.8776 114.74 32.4777C114.573 32.0779 114.328 31.7148 114.019 31.4092C113.71 31.1037 113.343 30.8617 112.94 30.6972C112.536 30.5327 112.104 30.4488 111.668 30.4505H105.741V20.8305H117.086C118.11 20.8305 119.125 21.0309 120.071 21.4202C121.017 21.8095 121.877 22.3802 122.601 23.0994C123.325 23.8187 123.899 24.6726 124.291 25.6123C124.682 26.5519 124.883 27.5589 124.882 28.5757Z" fill="#133F66"/>
</svg>
