<svg width="129" height="83" viewBox="0 0 129 83" fill="none" xmlns="http://www.w3.org/2000/svg">
<path d="M10.5204 33.0927L16.1407 10.6316H20.975V43.421H16.3442V25.0195L12.2112 43.421H8.93293L4.68095 25.0195V43.421H0V10.6316H4.83437L10.5204 33.0927Z" fill="#133F66"/>
<path d="M38.9599 37.0543C38.9599 41.644 36.6429 43.9449 32.0089 43.9572C27.3749 43.9694 25.0631 41.6685 25.0736 37.0543V10.6316H29.908V37.0543C29.908 38.5372 30.6083 39.2777 32.0089 39.2756C33.4095 39.2736 34.1151 38.5331 34.1255 37.0543V10.6316H38.9599V37.0543Z" fill="#133F66"/>
<path d="M42.7171 16.9891C42.7171 12.3994 45.0289 10.1036 49.6525 10.1015H49.7213V14.7647H49.6337C48.2456 14.7647 47.5515 15.5062 47.5515 16.9891V43.4118H42.7171V16.9891Z" fill="#133F66"/>
<path d="M73.746 0H68.9117V43.421H73.746V0Z" fill="#133F66"/>
<path d="M91.3865 37.0543C91.3865 41.644 89.0695 43.9449 84.4355 43.9572C79.8015 43.9694 77.4897 41.6685 77.5002 37.0543V16.9891C77.5002 12.3994 79.812 10.1036 84.4355 10.1015C89.059 10.0995 91.376 12.3954 91.3865 16.9891V37.0543ZM86.5552 16.9891C86.5552 15.5184 85.8549 14.777 84.4543 14.7647H84.4198C83.0296 14.7647 82.3345 15.5062 82.3345 16.9891V37.0451C82.3345 38.528 83.0349 39.2685 84.4355 39.2664C85.8361 39.2644 86.5427 38.5239 86.5552 37.0451V16.9891Z" fill="#186C5F"/>
<path d="M35.9666 49.6743H43.0021C47.2958 49.6743 49.4427 51.9753 49.4427 56.5772V61.507C49.4427 64.8915 47.8991 67.075 44.8118 68.0575C43.7592 68.329 42.6716 68.4477 41.5837 68.4098H40.7978V82.4638H35.9666V49.6743ZM40.7978 54.3375V63.7283H41.9093C42.3748 63.7518 42.8412 63.7074 43.2933 63.5965C44.17 63.2513 44.6083 62.5548 44.6083 61.507V56.5772C44.6083 55.0821 43.908 54.3355 42.5074 54.3375H40.7978Z" fill="#133F66"/>
<path d="M57.5208 68.4098V76.0971C57.5208 77.58 58.2211 78.3204 59.6218 78.3184C61.0224 78.3163 61.7279 77.5759 61.7384 76.0971V71.6851H66.5727V76.0971C66.5727 80.6867 64.2558 82.9877 59.6218 82.9999C54.9878 83.0122 52.676 80.7112 52.6865 76.0971V56.041C52.6865 51.4514 54.9982 49.1555 59.6218 49.1535C64.2453 49.1515 66.5623 51.4473 66.5727 56.041V68.4098H57.5208ZM57.5208 63.7283H61.7384V56.041C61.7384 54.5704 61.0381 53.8289 59.6374 53.8167H59.603C58.2149 53.8167 57.5208 54.5581 57.5208 56.041V63.7283Z" fill="#133F66"/>
<path d="M70.33 56.041C70.33 51.4514 72.6418 49.1555 77.2653 49.1535H77.3374V53.8167H77.2497C75.8616 53.8167 75.1675 54.5581 75.1675 56.041V82.4638H70.33V56.041Z" fill="#133F66"/>
<path d="M83.9783 68.4098V76.0971C83.9783 77.58 84.6787 78.3204 86.0793 78.3184C87.4799 78.3163 88.1855 77.5759 88.1959 76.0971V71.6851H93.0303V76.0971C93.0303 80.6867 90.7133 82.9877 86.0793 82.9999C81.4453 83.0122 79.1335 80.7112 79.144 76.0971V56.041C79.144 51.4514 81.4558 49.1555 86.0793 49.1535C90.7028 49.1515 93.0198 51.4473 93.0303 56.041V68.4098H83.9783ZM83.9783 63.7283H88.1959V56.041C88.1959 54.5704 87.4956 53.8289 86.095 53.8167H86.0605C84.6745 53.8167 83.9804 54.5581 83.9783 56.041V63.7283Z" fill="#133F66"/>
<path d="M101.825 38.8068H96.5997V43.9204H101.825V38.8068Z" fill="#186C5F"/>
<path d="M101.622 49.6743H96.7875V82.4668H101.622V49.6743Z" fill="#186C5F"/>
<path d="M105.379 56.041C105.379 51.4514 107.691 49.1555 112.315 49.1535H112.38V53.8167H112.296C110.906 53.8167 110.211 54.5581 110.214 56.041V82.4638H105.379V56.041Z" fill="#133F66"/>
<path d="M124.166 56.041C124.166 54.5581 123.472 53.8167 122.083 53.8167H122.049C120.646 53.8289 119.946 54.5704 119.948 56.041V60.453H115.114V56.041C115.114 51.4514 117.431 49.1555 122.065 49.1535C126.699 49.1515 129.01 51.4473 129 56.041V76.0971C129 80.699 126.688 82.9999 122.065 82.9999C117.441 82.9999 115.124 80.699 115.114 76.0971V70.6066C115.114 66.017 116.888 63.716 120.437 63.7038C121.973 63.7038 123.219 64.0551 124.175 64.7577L124.166 56.041ZM119.948 76.0971C119.948 77.58 120.654 78.3204 122.065 78.3184C123.476 78.3163 124.176 77.5759 124.166 76.0971V70.5821C124.166 69.1115 123.465 68.3762 122.065 68.3762C120.664 68.3762 119.958 69.1196 119.948 70.6066V76.0971Z" fill="#133F66"/>
<path d="M61.4879 13.8701V38.7425H66.0467V43.4363H52.0634V38.7425H56.6191V16.3763C56.6191 16.1662 56.5767 15.9581 56.4943 15.764C56.4119 15.57 56.2912 15.3937 56.1391 15.2454C55.9869 15.0971 55.8064 14.9797 55.6077 14.8998C55.4091 14.8199 55.1963 14.7792 54.9815 14.7801H52.0634V10.1107H57.6492C58.1536 10.1107 58.653 10.208 59.1189 10.397C59.5849 10.5859 60.0082 10.8629 60.3647 11.212C60.7212 11.5611 61.0039 11.9756 61.1966 12.4317C61.3893 12.8878 61.4883 13.3766 61.4879 13.8701Z" fill="#133F66"/>
</svg>
