<svg width="512" height="384" viewBox="0 0 95 70" fill="none" xmlns="http://www.w3.org/2000/svg">
  <path d="M7.74757 27.9095L11.8865 8.9664H15.4467V36.6201H12.0364V21.1008L8.99272 36.6201H6.57852L3.44721 21.1008V36.6201H0V8.9664H3.56019L7.74757 27.9095Z" fill="#DFE8EF" />
  <path d="M28.6914 31.2506C28.6914 35.1214 26.9851 37.062 23.5724 37.0723C20.1598 37.0827 18.4574 35.1421 18.465 31.2506V8.9664H22.0252V31.2506C22.0252 32.5013 22.541 33.1257 23.5724 33.124C24.6039 33.1223 25.1235 32.4978 25.1312 31.2506V8.9664H28.6914V31.2506Z" fill="#DFE8EF" />
  <path d="M31.4584 14.3282C31.4584 10.4574 33.1608 8.5211 36.5658 8.51937H36.6165V12.4522H36.5519C35.5297 12.4522 35.0186 13.0775 35.0186 14.3282V36.6124H31.4584V14.3282Z" fill="#DFE8EF" />
  <path d="M54.3091 0H50.7489V36.6201H54.3091V0Z" fill="#DFE8EF" />
  <path d="M67.3001 31.2506C67.3001 35.1214 65.5938 37.062 62.1812 37.0723C58.7686 37.0827 57.0661 35.1421 57.0738 31.2506V14.3282C57.0738 10.4574 58.7762 8.5211 62.1812 8.51938C65.5861 8.51765 67.2924 10.4539 67.3001 14.3282V31.2506ZM63.7422 14.3282C63.7422 13.0878 63.2265 12.4625 62.195 12.4522H62.1696C61.1459 12.4522 60.634 13.0775 60.634 14.3282V31.2429C60.634 32.4935 61.1497 33.118 62.1812 33.1163C63.2127 33.1145 63.733 32.4901 63.7422 31.2429V14.3282Z" fill="#85D1C5" />
  <path d="M26.487 41.894H31.6682C34.8302 41.894 36.4113 43.8346 36.4113 47.7157V51.8733C36.4113 54.7278 35.2745 56.5693 33.001 57.3979C32.2258 57.6269 31.4248 57.727 30.6237 57.695H30.0449V69.5478H26.487V41.894ZM30.0449 45.8268V53.7467H30.8635C31.2062 53.7666 31.5497 53.7291 31.8826 53.6356C32.5283 53.3445 32.8511 52.7571 32.8511 51.8733V47.7157C32.8511 46.4548 32.3353 45.8251 31.3039 45.8268H30.0449Z" fill="#DFE8EF" />
  <path d="M42.3603 57.695V64.1783C42.3603 65.4289 42.876 66.0534 43.9075 66.0516C44.939 66.0499 45.4586 65.4255 45.4662 64.1783V60.4573H49.0264V64.1783C49.0264 68.0491 47.3201 69.9896 43.9075 70C40.4949 70.0103 38.7924 68.0697 38.8001 64.1783V47.2635C38.8001 43.3927 40.5026 41.4565 43.9075 41.4548C47.3124 41.453 49.0188 43.3893 49.0264 47.2635V57.695H42.3603ZM42.3603 53.7467H45.4662V47.2635C45.4662 46.0232 44.9505 45.3979 43.919 45.3876H43.8937C42.8714 45.3876 42.3603 46.0129 42.3603 47.2635V53.7467Z" fill="#DFE8EF" />
  <path d="M51.7934 47.2635C51.7934 43.3927 53.4959 41.4565 56.9008 41.4548H56.9539V45.3876H56.8893C55.8671 45.3876 55.3559 46.0129 55.3559 47.2635V69.5478H51.7934V47.2635Z" fill="#DFE8EF" />
  <path d="M61.8445 57.695V64.1783C61.8445 65.4289 62.3603 66.0534 63.3917 66.0516C64.4232 66.0499 64.9428 65.4255 64.9505 64.1783V60.4573H68.5107V64.1783C68.5107 68.0491 66.8044 69.9896 63.3917 70C59.9791 70.0103 58.2766 68.0697 58.2843 64.1783V47.2635C58.2843 43.3927 59.9868 41.4565 63.3917 41.4548C66.7967 41.453 68.503 43.3893 68.5107 47.2635V57.695H61.8445ZM61.8445 53.7467H64.9505V47.2635C64.9505 46.0232 64.4347 45.3979 63.4033 45.3876H63.3779C62.3572 45.3876 61.8461 46.0129 61.8445 47.2635V53.7467Z" fill="#DFE8EF" />
  <path d="M74.9877 32.7287H71.1393V37.0413H74.9877V32.7287Z" fill="#85D1C5" />
  <path d="M74.8378 41.894H71.2776V69.5503H74.8378V41.894Z" fill="#85D1C5" />
  <path d="M77.6048 47.2635C77.6048 43.3927 79.3073 41.4565 82.7122 41.4548H82.7607V45.3876H82.6984C81.6746 45.3876 81.1635 46.0129 81.165 47.2635V69.5478H77.6048V47.2635Z" fill="#DFE8EF" />
  <path d="M91.4398 47.2635C91.4398 46.0129 90.9287 45.3876 89.9064 45.3876H89.881C88.848 45.3979 88.3323 46.0232 88.3338 47.2635V50.9845H84.7737V47.2635C84.7737 43.3927 86.48 41.4565 89.8926 41.4548C93.3052 41.453 95.0077 43.3893 95 47.2635V64.1783C95 68.0594 93.2975 70 89.8926 70C86.4876 70 84.7813 68.0594 84.7737 64.1783V59.5478C84.7737 55.677 86.0803 53.7364 88.6935 53.7261C89.8249 53.7261 90.7427 54.0224 91.4467 54.615L91.4398 47.2635ZM88.3338 64.1783C88.3338 65.4289 88.8534 66.0534 89.8926 66.0516C90.9317 66.0499 91.4475 65.4255 91.4398 64.1783V59.5271C91.4398 58.2868 90.924 57.6666 89.8926 57.6666C88.8611 57.6666 88.3415 58.2937 88.3338 59.5478V64.1783Z" fill="#DFE8EF" />
  <path d="M45.2818 11.6977V32.6744H48.6391V36.6331H38.3413V32.6744H41.6962V13.8114C41.6962 13.6341 41.665 13.4586 41.6043 13.295C41.5437 13.1313 41.4548 12.9827 41.3427 12.8576C41.2307 12.7325 41.0977 12.6334 40.9514 12.5661C40.8051 12.4987 40.6484 12.4644 40.4903 12.4651H38.3413V8.52713H42.4548C42.8263 8.52713 43.1941 8.60915 43.5372 8.76852C43.8803 8.92789 44.1921 9.16147 44.4546 9.45591C44.7171 9.75036 44.9253 10.0999 45.0673 10.4845C45.2092 10.8692 45.2821 11.2814 45.2818 11.6977Z" fill="#DFE8EF" />
</svg>