<svg viewBox="0 0 41 41" fill="none" xmlns="http://www.w3.org/2000/svg">
<g clip-path="url(#clip0_90_4)">
<path d="M23.232 0C22.68 0 22.232 0.447 22.232 1C22.232 1.553 22.68 2 23.232 2C27.781 2 31.482 5.701 31.482 10.25V26.651C31.482 32.958 26.351 38.089 20.044 38.089C13.737 38.089 8.60602 32.958 8.60602 26.651V10.25C8.60602 5.701 12.307 2 16.856 2H19.044V8.833C19.044 9.386 19.492 9.833 20.044 9.833C20.596 9.833 21.044 9.386 21.044 8.833V1C21.044 0.447 20.596 0 20.044 0H16.856C11.204 0 6.60602 4.598 6.60602 10.25V26.651C6.60602 34.06 12.634 40.089 20.044 40.089C27.454 40.089 33.481 34.061 33.481 26.651V10.25C33.482 4.598 28.884 0 23.232 0Z" fill="#133F66"/>
<path d="M20.044 12.125C19.492 12.125 19.044 12.572 19.044 13.125V17.25C19.044 17.803 19.492 18.25 20.044 18.25C20.596 18.25 21.044 17.803 21.044 17.25V13.125C21.044 12.572 20.597 12.125 20.044 12.125Z" fill="#133F66"/>
</g>
<defs>
<clipPath id="clip0_90_4">
<rect width="40.089" height="40.089" fill="white"/>
</clipPath>
</defs>
</svg>
